<svg width="29" height="29" viewBox="0 0 29 29" fill="none" xmlns="http://www.w3.org/2000/svg">
<rect width="29" height="29" rx="6" fill="#C6935C"/>
<path d="M19.8813 15.0275C19.7794 14.7953 19.4905 14.5574 19.2526 14.5121C18.7655 14.4214 18.7485 14.4328 17.0323 16.149L15.4294 17.7406L15.4181 13.232C15.4011 8.77437 15.4011 8.71773 15.2821 8.5648C15.0612 8.26461 14.88 8.17398 14.5231 8.17398C14.1663 8.17398 13.985 8.26461 13.7641 8.5648C13.6452 8.71773 13.6452 8.77437 13.6282 13.232L13.6169 17.7406L12.014 16.149C10.2921 14.4271 10.2807 14.4214 9.78231 14.5177C9.50477 14.5687 9.16493 14.9086 9.11395 15.1861C9.01766 15.7015 8.94403 15.6166 11.6231 18.2957C13.7981 20.465 14.1266 20.7765 14.3079 20.8048C14.829 20.9011 14.7497 20.9691 17.3778 18.3523C18.7485 16.9816 19.836 15.8544 19.8813 15.7525C19.9776 15.5259 19.9776 15.2484 19.8813 15.0275Z" fill="white"/>
</svg>
