<svg width="49" height="49" viewBox="0 0 49 49" fill="none" xmlns="http://www.w3.org/2000/svg">
<path d="M0 0H43C46.3137 0 49 2.68629 49 6V43C49 46.3137 46.3137 49 43 49H0V0Z" fill="#C6935C"/>
<path d="M22.1806 15.6327C18.7578 16.1943 16.1308 18.8359 15.6328 22.2148C15.5254 22.9521 15.5596 24.2656 15.706 24.9491C16.6142 29.1581 20.6426 31.8241 24.8906 31.0136C26.0234 30.7988 27.1855 30.2616 28.1914 29.4755L28.4892 29.246L30.5107 31.2724C31.624 32.3857 32.5908 33.3281 32.664 33.3671C33.1474 33.621 33.6211 33.1474 33.3672 32.664C33.3281 32.5907 32.3857 31.624 31.2724 30.5107L29.2461 28.4892L29.4756 28.1913C30.9355 26.3163 31.4726 24.0263 30.9941 21.7363C30.3691 18.7333 27.9912 16.3652 24.9443 15.706C24.3437 15.5741 22.7764 15.5351 22.1806 15.6327ZM24.7539 16.7363C25.6084 16.9169 26.3408 17.2245 27.0683 17.7031C28.5869 18.7138 29.6074 20.2128 29.998 22.0097C30.1055 22.5029 30.1445 23.6796 30.0713 24.2216C29.6611 27.2831 27.2832 29.6611 24.2217 30.0712C23.6797 30.1445 22.5029 30.1054 22.0098 29.998C19.3291 29.4169 17.3027 27.3954 16.7265 24.7294C16.5849 24.0654 16.5703 22.7421 16.7021 22.0927C17.2539 19.3583 19.3926 17.2245 22.083 16.7167C22.6982 16.5995 22.7226 16.5947 23.5234 16.6142C24.0459 16.6288 24.4267 16.663 24.7539 16.7363Z" fill="white"/>
</svg>
